<svg xmlns="http://www.w3.org/2000/svg" viewBox="0 0 1000 1500" width="1000" height="1500" role="img" aria-label="黑暗骑士 海报（us 版，站内矢量母版）">
<defs>
<linearGradient id="bg-dark-knight-us" x1="0" y1="0" x2="0.4" y2="1">
<stop offset="0%" stop-color="#06070a"/><stop offset="58%" stop-color="#141a24"/><stop offset="100%" stop-color="#06070a"/>
</linearGradient>
<radialGradient id="vig-dark-knight-us" cx="50%" cy="42%" r="72%">
<stop offset="45%" stop-color="#000" stop-opacity="0"/><stop offset="100%" stop-color="#000" stop-opacity="0.9"/>
</radialGradient>
<filter id="g"><feTurbulence type="fractalNoise" baseFrequency="0.85" numOctaves="3" stitchTiles="stitch"/><feColorMatrix type="saturate" values="0"/></filter>
</defs>
<rect width="1000" height="1500" fill="url(#bg-dark-knight-us)"/>
<rect x="40" y="760" width="26" height="420" fill="#06070a" stroke="#3f5a72" stroke-opacity="0.22"/><rect x="82" y="623" width="26" height="557" fill="#06070a" stroke="#3f5a72" stroke-opacity="0.22"/><rect x="124" y="486" width="26" height="694" fill="#06070a" stroke="#3f5a72" stroke-opacity="0.22"/><rect x="166" y="349" width="26" height="831" fill="#06070a" stroke="#3f5a72" stroke-opacity="0.22"/><rect x="208" y="732" width="26" height="448" fill="#06070a" stroke="#3f5a72" stroke-opacity="0.22"/><rect x="250" y="595" width="26" height="585" fill="#06070a" stroke="#3f5a72" stroke-opacity="0.22"/><rect x="292" y="458" width="26" height="722" fill="#06070a" stroke="#3f5a72" stroke-opacity="0.22"/><rect x="334" y="321" width="26" height="859" fill="#06070a" stroke="#3f5a72" stroke-opacity="0.22"/><rect x="376" y="704" width="26" height="476" fill="#06070a" stroke="#3f5a72" stroke-opacity="0.22"/><rect x="418" y="567" width="26" height="613" fill="#06070a" stroke="#3f5a72" stroke-opacity="0.22"/><rect x="460" y="430" width="26" height="750" fill="#06070a" stroke="#3f5a72" stroke-opacity="0.22"/><rect x="502" y="293" width="26" height="887" fill="#06070a" stroke="#3f5a72" stroke-opacity="0.22"/><rect x="544" y="676" width="26" height="504" fill="#06070a" stroke="#3f5a72" stroke-opacity="0.22"/><rect x="586" y="539" width="26" height="641" fill="#06070a" stroke="#3f5a72" stroke-opacity="0.22"/><rect x="628" y="402" width="26" height="778" fill="#06070a" stroke="#3f5a72" stroke-opacity="0.22"/><rect x="670" y="265" width="26" height="915" fill="#06070a" stroke="#3f5a72" stroke-opacity="0.22"/><rect x="712" y="648" width="26" height="532" fill="#06070a" stroke="#3f5a72" stroke-opacity="0.22"/><rect x="754" y="511" width="26" height="669" fill="#06070a" stroke="#3f5a72" stroke-opacity="0.22"/><rect x="796" y="374" width="26" height="806" fill="#06070a" stroke="#3f5a72" stroke-opacity="0.22"/><rect x="838" y="757" width="26" height="423" fill="#06070a" stroke="#3f5a72" stroke-opacity="0.22"/><rect x="880" y="620" width="26" height="560" fill="#06070a" stroke="#3f5a72" stroke-opacity="0.22"/><rect x="922" y="483" width="26" height="697" fill="#06070a" stroke="#3f5a72" stroke-opacity="0.22"/><rect x="430" y="180" width="140" height="1000" fill="#dfe4ea" fill-opacity="0.07"/>
<rect width="1000" height="1500" fill="url(#vig-dark-knight-us)"/>
<g font-family="Georgia, serif" fill="#dfe4ea">
<text x="80" y="1330" font-size="76" letter-spacing="6" fill-opacity="0.92">黑暗骑士</text>
<text x="80" y="1392" font-size="30" letter-spacing="12" fill-opacity="0.55" font-family="Helvetica, Arial, sans-serif">THE DARK KNIGHT</text>
<text x="80" y="1444" font-size="24" letter-spacing="8" fill-opacity="0.4" font-family="Helvetica, Arial, sans-serif">2008 · US</text>
</g>
<rect width="1000" height="1500" filter="url(#g)" opacity="0.15" style="mix-blend-mode:overlay"/>
</svg>
