<svg xmlns="http://www.w3.org/2000/svg" viewBox="0 0 1000 1500" width="1000" height="1500" role="img" aria-label="千与千寻 海报（intl 版，站内矢量母版）">
<defs>
<linearGradient id="bg-spirited-away-intl" x1="0" y1="0" x2="0.4" y2="1">
<stop offset="0%" stop-color="#0a0f0d"/><stop offset="58%" stop-color="#173a33"/><stop offset="100%" stop-color="#0a0f0d"/>
</linearGradient>
<radialGradient id="vig-spirited-away-intl" cx="50%" cy="42%" r="72%">
<stop offset="45%" stop-color="#000" stop-opacity="0"/><stop offset="100%" stop-color="#000" stop-opacity="0.9"/>
</radialGradient>
<filter id="g"><feTurbulence type="fractalNoise" baseFrequency="0.85" numOctaves="3" stitchTiles="stitch"/><feColorMatrix type="saturate" values="0"/></filter>
</defs>
<rect width="1000" height="1500" fill="url(#bg-spirited-away-intl)"/>
<rect x="146" y="260" width="68" height="92" rx="8" fill="#d9b24c" fill-opacity="0.90"/><circle cx="180" cy="306" r="14" fill="#f2f2ee" fill-opacity="0.85"/><rect x="566" y="390" width="68" height="92" rx="8" fill="#d9b24c" fill-opacity="0.81"/><circle cx="600" cy="436" r="14" fill="#f2f2ee" fill-opacity="0.85"/><rect x="146" y="520" width="68" height="92" rx="8" fill="#d9b24c" fill-opacity="0.72"/><circle cx="180" cy="566" r="14" fill="#f2f2ee" fill-opacity="0.85"/><rect x="566" y="650" width="68" height="92" rx="8" fill="#d9b24c" fill-opacity="0.63"/><circle cx="600" cy="696" r="14" fill="#f2f2ee" fill-opacity="0.85"/><rect x="146" y="780" width="68" height="92" rx="8" fill="#d9b24c" fill-opacity="0.54"/><circle cx="180" cy="826" r="14" fill="#f2f2ee" fill-opacity="0.85"/><rect x="566" y="910" width="68" height="92" rx="8" fill="#d9b24c" fill-opacity="0.45"/><circle cx="600" cy="956" r="14" fill="#f2f2ee" fill-opacity="0.85"/><rect x="146" y="1040" width="68" height="92" rx="8" fill="#d9b24c" fill-opacity="0.36"/><circle cx="180" cy="1086" r="14" fill="#f2f2ee" fill-opacity="0.85"/><rect x="0" y="1180" width="1000" height="320" fill="#173a33"/><rect x="0" y="1180" width="1000" height="6" fill="#d9b24c" fill-opacity="0.6"/>
<rect width="1000" height="1500" fill="url(#vig-spirited-away-intl)"/>
<g font-family="Georgia, serif" fill="#f2f2ee">
<text x="80" y="1330" font-size="76" letter-spacing="6" fill-opacity="0.92">千与千寻</text>
<text x="80" y="1392" font-size="30" letter-spacing="12" fill-opacity="0.55" font-family="Helvetica, Arial, sans-serif">SPIRITED AWAY</text>
<text x="80" y="1444" font-size="24" letter-spacing="8" fill-opacity="0.4" font-family="Helvetica, Arial, sans-serif">2001 · INTL</text>
</g>
<rect width="1000" height="1500" filter="url(#g)" opacity="0.15" style="mix-blend-mode:overlay"/>
</svg>
